<?xml version="1.0" encoding="UTF-8"?><svg id="a" xmlns="http://www.w3.org/2000/svg" viewBox="0 0 588.62 588.62"><defs><style>.b{fill:#fce2ef;}</style></defs><path class="b" d="M305.47,10.5c.39,.07,.92,.15,1.53,.17,7.71,.27,15.7,.94,24.43,2.06,11.41,1.46,22.81,3.65,33.89,6.49,30.04,7.7,58.41,20.18,84.32,37.1,22.45,14.66,42.65,32.35,60.02,52.58,25.41,29.6,44.19,63.46,55.8,100.64,4.63,14.84,8.05,30.21,10.14,45.71,1.51,11.17,2.23,19.75,2.33,27.8,0,.73,.1,1.36,.18,1.8v19.14c-.07,.5-.15,1.12-.18,1.85-.02,.58-.02,1.17-.02,1.75,0,.66,0,1.28-.04,1.77-.17,1.97-.34,3.94-.5,5.92-.44,5.29-.89,10.76-1.53,16.05-1.35,11.18-3.52,22.46-6.65,34.5-7.79,29.97-20.36,58.3-37.35,84.21-12.52,19.09-27.37,36.66-44.13,52.23-20.68,19.21-43.99,35.18-69.27,47.47-17.32,8.42-35.57,15.08-54.24,19.8-11.39,2.88-22.99,5.05-34.46,6.47-8.43,1.04-16.06,1.67-23.34,1.94-.61,.02-1.13,.1-1.53,.17h-21.57c-.39-.06-.91-.13-1.5-.17-1.3-.08-2.61-.15-3.91-.22-2.52-.14-4.89-.27-7.28-.47-7.18-.6-14.49-1.5-21.73-2.67-14.39-2.33-28.69-5.82-42.5-10.35-25.46-8.36-49.64-20.33-71.89-35.58-17.6-12.06-33.84-26.09-48.28-41.7-19.59-21.18-35.78-45.02-48.14-70.86-10.07-21.05-17.49-43.31-22.05-66.15-1.8-9.01-2.96-16.51-3.65-23.61-.35-3.61-.64-7.31-.92-10.9-.16-2.12-.33-4.24-.51-6.36-.09-1.05-.22-2.03-.34-2.97-.03-.24-.06-.48-.09-.72v-21.71c.1-.55,.22-1.23,.28-2.03,.16-2.05,.3-4.1,.45-6.15,.28-3.92,.56-7.98,.96-11.9,1.02-10.03,2.72-20.45,5.05-30.97,5.36-24.09,13.77-47.29,25.02-68.96,15.01-28.91,34.69-54.83,58.49-77.04,20.72-19.33,44.16-35.43,69.68-47.82,17.16-8.34,35.28-14.95,53.84-19.67,12.24-3.11,24.73-5.4,37.1-6.81,7.66-.87,14.52-1.42,20.97-1.66,.64-.02,1.18-.1,1.58-.17h21.53m.64-7h-22.75c-.42,.06-.85,.16-1.27,.18-7.19,.27-14.36,.89-21.51,1.7-12.84,1.46-25.51,3.8-38.03,6.98-19.07,4.84-37.47,11.55-55.18,20.16-26.26,12.76-50.06,29.09-71.4,49-24.5,22.87-44.48,49.18-59.93,78.93-11.65,22.43-20.16,46-25.64,70.66-2.33,10.49-4.1,21.09-5.19,31.78-.61,6.06-.95,12.14-1.43,18.21-.05,.66-.2,1.32-.3,1.97v22.75c.16,1.28,.35,2.56,.46,3.84,.49,5.78,.88,11.57,1.44,17.34,.8,8.17,2.15,16.26,3.75,24.3,4.7,23.54,12.24,46.15,22.6,67.8,12.76,26.69,29.23,50.88,49.32,72.59,14.88,16.09,31.38,30.33,49.46,42.72,22.82,15.65,47.37,27.82,73.66,36.45,14.24,4.68,28.77,8.21,43.57,10.61,7.39,1.2,14.81,2.11,22.27,2.74,3.78,.32,7.56,.46,11.35,.7,.47,.03,.94,.12,1.42,.18h22.75c.38-.06,.75-.16,1.12-.18,8.01-.3,15.98-1.01,23.93-1.99,11.92-1.47,23.69-3.69,35.32-6.63,19.23-4.85,37.75-11.62,55.59-20.29,26.08-12.68,49.72-28.9,70.97-48.63,17.24-16.01,32.32-33.85,45.22-53.52,17.49-26.66,30.25-55.42,38.28-86.29,3.03-11.66,5.39-23.47,6.83-35.43,.89-7.37,1.4-14.79,2.05-22.2,.11-1.29,.04-2.59,.09-3.88,.02-.57,.12-1.13,.18-1.7v-20.16c-.06-.42-.18-.84-.18-1.27-.12-9.61-1.11-19.15-2.39-28.66-2.15-15.91-5.61-31.53-10.4-46.86-11.97-38.3-31.04-72.67-57.17-103.11-17.93-20.89-38.45-38.84-61.5-53.88-26.7-17.43-55.52-30.09-86.41-38.02-11.44-2.93-23.02-5.15-34.74-6.65-8.33-1.07-16.68-1.83-25.08-2.12-.38-.01-.75-.11-1.13-.17h0Z"/><path class="b" d="M346.61,131.6l.03,75.21,.03,79.3v33.61c.02,22.41,.03,44.82,.03,67.22,0,14.98-.01,29.97-.03,44.95v5.62c0,2.8-.02,5.6-.03,8.39-42.6,.01-85.2,.02-127.79,.04v-52.66c3.57,.01,7.14,.02,10.7,.03,8.59,.03,17.18,.06,25.78,.07,1.85,0,3.7,0,5.55,0,7.3,0,14.31-.02,22.72-.04,1.02,0,1.95-.08,2.85-.16,.37-.03,.76-.06,1.18-.09l6.53-.44v-44.27c-.02-46.38-.03-92.75-.03-139.13,0-2.28,0-4.55,.01-6.83,0-2.08,.01-4.17,.02-6.25,0-4.07-1.56-8.95-9-9.04-.19,0-.37,0-.56,0h-16.62c-21.74-.02-43.49-.03-65.23-.03h-.21c-2.6,0-5.2,.01-7.8,.03h-1.76c-6.12,.04-9.24,3.18-9.25,9.36,0,4.5,0,8.99,0,13.49v6.51c0,.83,0,1.67,.01,2.5,.01,.64,.06,1.21,.11,1.72,.02,.18,.03,.38,.05,.58l.45,5.69,5.67,.7c.14,.02,.28,.04,.41,.06,.58,.09,1.38,.21,2.32,.22,3.41,0,6.82,.01,10.23,.01,2.27,0,4.55,0,6.82,0,0,17.38-.02,34.77-.03,52.15-1.25,0-2.5,.01-3.75,.02-7.07,.04-14.38,.08-21.56,.09-8.2,0-16.41,.01-24.61,.01-9.42,0-18.84,0-28.26,0h-5.29V131.61c7.13,0,14.27,.02,21.4,.03,16.37,.02,33.29,.05,49.94,.05h2.93c34.06,0,68.11-.03,102.16-.05,14.63,0,29.26-.02,43.88-.03m100.05,125.82h15.66l23.31,.03c2.62,0,5.24,0,7.86,0h8.07v136.76h-118.69c0-17.54,0-35.09,0-52.63,12.19,0,24.38,0,36.58,0h17.51c.41,0,.81,0,1.23-.01,5.45-.16,8.53-3.28,8.69-8.76,.02-.65,.01-1.25,0-1.9-.02-1.37-.04-2.74-.07-4.1-.05-2.76-.1-5.62-.11-8.4-.02-16.64-.03-33.28-.04-49.92v-11.05M180.52,393.28v52.78c-3.04,.01-6.08,.02-9.11,.03-9.3,.04-18.91,.07-28.35,.08h-.82c-4.81,0-9.72-.04-14.47-.08-.6,0-1.2-.01-1.8-.02v-52.67c4.45,0,8.9,0,13.34,0h21.12v-.12h3.16c5.64,0,11.29,0,16.93,0M350.12,124.6h-.05c-49.83,.03-99.67,.07-149.5,.08-.98,0-1.96,0-2.93,0-25.24,0-50.48-.05-75.73-.08h-.21c-2.4,0-2.4,.08-2.4,2.52v157.48c0,.32,0,.64,0,.96,.05,1.21,.18,1.4,1.35,1.53,.95,.1,1.91,.14,2.86,.14,12.11,0,24.22,.01,36.33,.01,8.21,0,16.41,0,24.62-.01,10-.01,19.99-.09,29.99-.14,2.25-.01,2.31-.07,2.31-2.35,.01-20.37,.02-40.74,.04-61.11,0-.48,.01-.96-.02-1.44-.07-1.03-.35-1.33-1.37-1.35-.04,0-.08,0-.12,0-.7,0-1.4,.11-2.1,.11-3.4,0-6.81,0-10.21,0s-6.81,0-10.21-.01c-.61,0-1.22-.14-1.89-.22-.06-.74-.13-1.32-.14-1.9-.02-1.06,0-2.13,0-3.19,0-6.38,0-12.76,0-19.15,0-2.33,.04-2.35,2.28-2.36,3.18-.02,6.35-.04,9.53-.04h.21c27.18,0,54.36,.02,81.53,.03h.32c.16,0,.32,0,.48,0,2.03,.02,2.08,.06,2.08,2.04,0,4.36-.03,8.72-.03,13.08,0,57.97,.02,115.94,.03,173.92v2.94c-1.38,.09-2.48,.23-3.58,.23-7.57,.02-15.13,.04-22.7,.04-1.85,0-3.69,0-5.54,0-13.61-.02-27.23-.08-40.84-.12-.11,0-.22,0-.32,0-2.32,0-2.32,.12-2.32,2.65,0,20.32,0,40.63,0,60.95,0,2.97-.24,3.07,2.49,3.07,.16,0,.33,0,.51,0,44.41-.02,88.82-.03,133.23-.04,1.17,0,2.34,0,3.51,0,.22,0,.45,0,.67,0,.04,0,.09,0,.13,0h.03c.78,0,1.12-.46,1.18-1.18,.03-.32,.02-.64,.02-.96,.02-4.41,.05-8.83,.05-13.24,.02-16.86,.04-33.72,.04-50.58,0-33.61-.02-67.23-.03-100.84-.02-52.87-.04-105.73-.05-158.6,0-.32,0-.64,0-.96,0-.21,0-.43-.01-.64-.05-.81-.43-1.29-1.29-1.3-.73,0-1.45-.02-2.18-.02h0Zm93.35,125.82c-.78,0-1.57,0-2.35,.04-1.17,.06-1.4,.28-1.42,1.42-.04,1.65-.05,3.3-.04,4.94,0,20.53,.01,41.05,.04,61.58,0,4.2,.12,8.4,.18,12.6,0,.53,.02,1.06,0,1.59-.05,1.78-.18,1.92-1.9,1.97-.34,.01-.68,.01-1.01,.01s-.71,0-1.06,0c-19.2,0-38.39,0-57.59,0-2.41,0-2.44,.04-2.44,2.37,0,20.63,0,41.26,0,61.9q0,2.36,2.42,2.36c21.3,0,42.59,0,63.89,0s42.59,0,63.89,0c.43,0,.85,0,1.28-.01,.79,0,1.16-.44,1.19-1.19,.02-.69,.03-1.38,.03-2.07,0-24.04,0-48.07,0-72.11s0-48.07,0-72.11c0-.69,0-1.38-.03-2.07-.03-.76-.42-1.18-1.2-1.18-.43,0-.85-.01-1.28-.01-4.19,0-8.38,0-12.56,0-2.62,0-5.24,0-7.85,0-13.99,0-27.97-.02-41.96-.03h-.2ZM186.18,386.2c-.15,0-.33,0-.52,.02-.58,.03-1.17,.06-1.75,.06-6.77,0-13.54,0-20.31,0-3.39,0-6.77,0-10.16,0v.13c-4.71,0-9.41,0-14.12,0s-9.41,0-14.12,0c-1.59,0-3.19,0-4.78,.07-1.15,.04-1.38,.31-1.44,1.44-.01,.27,0,.53,0,.8,0,20.69,0,41.37,0,62.06,0,.37,0,.74,.02,1.12,.02,.71,.41,1.06,1.1,1.11,.37,.02,.74,.04,1.12,.04,7.01,.05,14.02,.14,21.04,.14,.27,0,.54,0,.82,0,13.82-.01,27.65-.09,41.47-.13q2.99-.01,2.99-2.99c0-20.37,0-40.73,0-61.1,0-.32,0-.64,0-.96-.04-1.47-.2-1.79-1.34-1.79h0Z"/></svg>